<?xml version="1.0" encoding="UTF-8" standalone="no"?>
<!-- Created with Inkscape (http://www.inkscape.org/) -->

<svg
   version="1.1"
   id="svg2"
   width="115.94667"
   height="105.82667"
   viewBox="0 0 115.94667 105.82667"
   sodipodi:docname="Black &amp; white ipsos.eps"
   xmlns:inkscape="http://www.inkscape.org/namespaces/inkscape"
   xmlns:sodipodi="http://sodipodi.sourceforge.net/DTD/sodipodi-0.dtd"
   xmlns="http://www.w3.org/2000/svg"
   xmlns:svg="http://www.w3.org/2000/svg">
  <defs
     id="defs6" />
  <sodipodi:namedview
     id="namedview4"
     pagecolor="#ffffff"
     bordercolor="#000000"
     borderopacity="0.25"
     inkscape:showpageshadow="2"
     inkscape:pageopacity="0.0"
     inkscape:pagecheckerboard="0"
     inkscape:deskcolor="#d1d1d1" />
  <g
     id="g8"
     inkscape:groupmode="layer"
     inkscape:label="ink_ext_XXXXXX"
     transform="matrix(1.3333333,0,0,-1.3333333,0,105.82667)">
    <g
       id="g10"
       transform="scale(0.1)">
      <path
         d="M 0,0 V 793.707 H 850.527 C 888.789,529.004 873.785,277.852 765.512,0 H 0"
         style="fill:#7b7979;fill-opacity:1;fill-rule:nonzero;stroke:none"
         id="path12" />
      <path
         d="m 345.098,493.75 -3.59,-3.059 c 7.906,-2.836 16.504,2.625 18.238,7.317 l 0.395,5.062 c -6.278,-1.422 -12.485,-4.531 -15.043,-9.32"
         style="fill:#231f20;fill-opacity:1;fill-rule:nonzero;stroke:none"
         id="path14" />
      <path
         d="m 388.027,469.082 -6.25,0.387 c 0.016,-5.5 1.77,-9.957 7.598,-13.496 l 4.664,-1.047 c 6.375,5.484 -2.144,11.051 -6.012,14.156"
         style="fill:#231f20;fill-opacity:1;fill-rule:nonzero;stroke:none"
         id="path16" />
      <path
         d="m 325.305,598.297 -4.653,-3.301 c 9.489,-3.402 17.258,1.649 20.672,8.477 l 1.535,6.23 c -7.531,-1.707 -13.351,-1.652 -17.554,-11.406"
         style="fill:#231f20;fill-opacity:1;fill-rule:nonzero;stroke:none"
         id="path18" />
      <path
         d="m 325.781,567.004 -1.39,5.109 c -7.536,-1.703 -13.118,-4.472 -16.184,-10.218 v -4.043 c 9.484,-3.411 14.508,5.109 17.574,9.152"
         style="fill:#231f20;fill-opacity:1;fill-rule:nonzero;stroke:none"
         id="path20" />
      <path
         d="m 302.371,520.824 3.125,-1.875 c 10.383,-3.379 11.074,5.004 13.637,8.379 l 3.996,3.5 c -9.629,1.875 -18.195,-5.215 -20.758,-10.004"
         style="fill:#231f20;fill-opacity:1;fill-rule:nonzero;stroke:none"
         id="path22" />
      <path
         d="m 363.621,668.074 -3.742,-1.781 c 1.035,-6.621 16.043,-14.004 19.809,-8.719 l 0.546,6.289 c -4.906,3.309 -9.929,5.098 -16.613,4.211"
         style="fill:#231f20;fill-opacity:1;fill-rule:nonzero;stroke:none"
         id="path24" />
      <path
         d="M 415.781,684.996 410,686.754 c -3.105,-4.395 -4.742,-7.75 -1.469,-15.344 l 2.996,-6.004 c 6.836,6.668 13.59,12.953 4.254,19.59"
         style="fill:#231f20;fill-opacity:1;fill-rule:nonzero;stroke:none"
         id="path26" />
      <path
         d="m 558.07,546.539 c -12.504,-2.832 -31.351,5.719 -28.882,7.379 6.378,4.297 20.878,11.797 34.882,6.797 2.383,-0.856 3.375,-3.211 3.629,-6.258 0.625,-7.121 -5.125,-7.293 -9.629,-7.918 z m 43.145,-7.57 c -6.508,8.691 -18.844,20.582 -8.613,32.109 5.347,4.082 6.933,7.168 7.558,12.824 2.176,19.571 1.172,28.075 -1.574,38.828 0.461,0.958 2.5,-0.25 3.246,3.25 2.023,9.442 -3.246,11.25 -3.246,11.25 3.996,3.5 3.621,16.633 -2.758,16.504 3.504,5.754 0.504,15.012 -5.754,13.008 0,0 3.168,1.637 2.746,5.836 -0.832,8.336 -12.742,0.164 -9.668,5.668 1.621,2.899 -5.078,12.754 -8.5,5.117 -2.011,1.356 1.422,6.133 -2.214,7.614 -2.133,-0.094 -4.372,-1.793 -7.125,-3.309 -0.778,3.176 2.507,4.832 -1.524,9.273 -5.469,3.809 -5.844,-1.82 -9.605,-3.898 -6.993,1.582 9.511,5.707 -5.293,11.961 -3.797,-9.066 -3.493,-2.352 -5.168,-1.117 -1.008,0.742 -3.285,-1.637 -7.457,-5.883 2.175,6 7.175,13.379 -0.129,11.25 -8.324,-3.75 -3.449,1.144 -3.543,1.758 7.219,3.242 -6.656,10.996 -6.102,2.812 -0.179,-5.574 -12.183,-10.324 -8.793,-3.597 2.258,8.453 12.614,-4.477 3.684,10.582 -5.57,-6.301 -10.078,-10.481 -11.016,-12.778 -4.312,-17.285 -1.933,-1.527 -6.437,-1.277 6.004,4.004 13.707,11.125 11.457,15.754 -6.504,0.5 -21.461,-10.129 -12.008,-11.004 -0.699,-3.375 -6.199,-7.379 -9.375,-1.5 5.258,1.383 14.301,19.004 3.051,13.75 -1.071,-1.055 -1.063,-4.188 -3.078,-7.149 -2.672,2.403 -0.539,6.114 -1.465,7.649 -8.961,8.254 -5.836,-13.25 -5.508,-18 -11.707,7.25 -0.703,5.25 -3.758,17.258 -9.699,-1.754 -12.324,-5.879 -10.695,-16.758 -1.328,-2.629 -3.758,-8.629 -5.379,-1.25 5.25,6.875 4.754,16.75 -4.418,17.047 14.797,-135.332 13.707,-272.117 -7.406,-406.235 l -1.149,-7.179 c 10.637,0.121 26.055,3.304 37.203,3.855 32.078,-1.062 31.43,-5.238 84.52,-4.539 12.23,1.188 15.644,3.192 19.601,3.012 -3.886,16.418 -30.687,7.113 -44.308,11.844 -23.055,2.214 -27.02,16.078 -34.344,26.32 -3.316,5.715 -8.121,12.883 -8.008,22.387 -1.793,12.336 0.586,18.847 0.352,30.91 1.051,8.906 11.172,7.117 17.457,6.344 19.969,-1.973 53.527,1.257 62.359,3.918 12.625,3.816 12.926,11.652 4.414,23.304 -1.836,5.77 -1.507,9.348 1.051,14.488 3.488,3.907 7.981,6.516 4.621,11.344 0,0 -28.98,6.09 -9.027,9.449 20.441,3.446 13.644,11.758 13.644,11.758 0,0 -3.359,8.403 -6.507,14.699 -2.317,4.622 17.007,6.09 19.105,13.442 4.621,6.297 -10.019,20.281 -15.117,27.297"
         style="fill:#231f20;fill-opacity:1;fill-rule:nonzero;stroke:none"
         id="path28" />
      <path
         d="M 454.199,309.137 C 437.832,208.52 410.074,106.176 368.695,0 H 368.668 0 v 793.707 h 453.723 c 3.773,-26.133 6.281,-45.281 8.98,-71.184 0,0 -7.785,-2.414 -7.043,-8.769 0.817,-6.973 3.875,-8.629 3.875,-8.629 L 456.16,703.5 c 0,0 -3.738,5.449 -3.754,5.254 0,5.348 2.262,13.379 -10,10.375 -4.254,-9.375 6.75,-11.375 3.871,-17.754 -13,-0.75 -3.867,9.754 -14.214,3.879 0.695,3.012 -1.5,11.035 -4.754,10.504 -1.414,-4.547 -4.871,-12.137 0.246,-16.746 -1.621,-1.082 -6.434,-0.332 -7.539,1.324 -1.52,2.266 3.461,6.168 -0.543,13.168 -12,-5.168 -0.875,-16.75 -10.797,-21.133 -10.879,1.379 6.297,10.633 -2.371,18.633 -9.758,-2.25 -13.547,-12.422 -9.547,-18.422 -0.231,-5.32 -4.363,-7.992 -5.063,-12.602 -4.898,0.766 -6.972,2.547 -7.523,4.391 -0.625,3.379 8.875,5.125 2.5,12.629 -10.379,-1.625 -3.496,-18.383 -11.754,-9.379 -0.875,3.879 -3.5,7.379 -5.539,7.789 -3.949,-2.836 -5.816,-7.273 -3.258,-11.176 l 4.172,-5.488 c -0.535,0.141 1.773,-3.039 1.25,-2.879 -6.875,5.504 -16.051,9.309 -21.879,3.125 0.746,-5.75 5.746,-6.125 13.629,-7.875 -9.953,-0.918 -11.816,-4.441 -15.07,-6.39 -1.16,6.562 -8.86,7.578 -16.071,8.64 -4,-1 -6.644,1.817 -8.504,0.403 3.024,-7.446 10.301,-13.129 19.133,-14.907 3.965,0.461 4.504,0.375 7.258,1.875 5.344,-2.48 4.691,-3.289 6.09,-7.008 -7.75,-3.476 -13.973,1.012 -21.727,-0.992 0.024,-0.261 -2.023,-0.277 -2.121,0.25 0.121,0.117 -0.91,1.86 -0.789,1.969 -3.34,6.41 -12.344,3.906 -17.094,2.531 -0.699,-5.144 4.504,-9.25 8.754,-11.004 5.754,-2.066 7.625,-0.386 7.629,-0.375 l 2.371,2.129 c 2.5,-9.133 5.758,-9.578 10.653,-13.304 -5.348,-1.957 -7.325,-3.567 -14.063,-3.036 -7.59,11.711 -30.344,16.836 -29.469,11.332 3.25,-12.121 20.047,-15.042 20.047,-15.042 0,0 -8.797,-3.25 -7.293,-6.083 1.5,-2.835 13.008,-4.609 11.375,-9.042 -12,5.332 -14.336,3.148 -6.164,-7.34 -10.09,-0.496 -7.84,10.379 -14.215,12.879 -4.625,-3.375 -1.875,-10.5 -1.875,-10.5 -2.312,1.832 -8.378,12 -13.378,10.75 -1.625,-1.25 -1.625,-6.75 2.375,-10.375 -4.883,-1.067 -12.672,-0.403 -13.879,-5.629 7.906,-6.032 16.254,-6 28.64,-4.453 0,0 2.262,0.043 4.617,0.828 2.364,0.789 5.879,-2.5 5.879,-2.5 -6.093,-1.364 -3.504,-3.379 -15.504,-5.75 -7.867,-3.77 -14.05,-8.653 -14.05,-16.524 4.882,-2.402 10.824,-4.726 14.05,-0.07 5.25,7.59 3.848,1.488 7.5,1.836 l 4.063,-1.289 c -3.313,-8.09 -21.707,-7.985 -18.066,-13.836 3.5,-5.629 9.128,-11.504 9.128,-11.504 0,0 -12.957,6.543 -16.628,1.875 -3.422,-4.348 4.25,-11.379 17.851,-14.434 -4.652,-2.839 -20.976,0.051 -11.101,-10.203 -11.75,-4.961 -7.918,-8.461 1.585,-5.961 l 4.5,-0.496 c -2.792,-1.953 -11.199,-5.82 -10.5,-8.84 0.497,-4 10,1.008 11.5,-1.996 0.665,-4.336 -4.585,-6.203 -5.05,-7.445 6.742,-4.254 10.691,6.035 16.738,0 -2.324,-4.43 -12.09,-3.547 -9.996,-10.109 3.723,-2.836 9.766,-1.594 13.484,-4.258 0,0 -4.945,-9.531 -2.383,-10.781 5.379,-2.625 10.399,5.839 12.258,6.378 -1.379,-11.007 7.91,-7.308 5.121,-14.757 -0.125,-3.993 -0.371,-9.5 3.754,-11.625 8.508,2.632 9.305,9.343 9.129,19.379 -0.062,3.5 9.793,-2.293 9.793,-2.293 6,-4.836 -10.172,-8.5 -5.355,-18.754 13.691,-1.914 13.691,9.754 24.863,11.918 4.875,-3.399 -2.078,-8.903 -3.707,-12.805 -6.977,-3.902 -15.469,0.801 -22.094,-12.699 9.5,-3.875 14.031,-0.696 17.258,0.996 3.031,2.183 2.668,3.242 5,4.125 0.23,-3.719 -0.699,-10.453 2.875,-12 3.125,0.25 3.379,1.375 6.004,3.125 2.75,-2.875 -4.379,-9.879 -0.125,-12.875 4,0.746 5.25,4.246 5.25,4.246 2.414,-3.195 5.125,-3.246 7.625,-2.371 1.379,3.371 1.683,11.183 -2.731,13.972 2.094,2.485 7.235,-2.222 9.485,-0.472 4.183,-5.145 -5.25,-15 1.754,-19.125 6.746,0.625 6.433,7.359 13.175,10.199 -1.167,-6.914 6.801,-11.934 -3.425,-17.082 0,-6.754 12.547,-4.746 6.5,-14.5 2.328,-3.906 5.461,-2.215 8.254,-1.504 l 6.004,6.75 c -1.629,-5.496 -2.219,-14.105 -0.594,-20.484 -2.094,-5.149 2.844,-11.024 -6.512,-15.434 -2.555,-12.769 -2.562,-25.746 -17.441,-33.898 -8.375,-15.789 -61.2,-7.45 -72.825,-23.051 2.789,-2.84 29.821,-1.938 33.305,-0.871 5.117,2.484 9.07,-1.949 14.414,-1.774 11.86,0 26.043,3.903 35.805,0 13.777,0.145 25.394,-0.336 37.824,-0.39 l 0.035,-0.125"
         style="fill:#231f20;fill-opacity:1;fill-rule:nonzero;stroke:none"
         id="path30" />
      <path
         d="m 548.988,128.422 c 43.965,0 73.297,32.406 73.297,72.269 0,41.977 -29.609,70.68 -73.297,70.68 -43.961,0 -73.843,-27.914 -73.843,-70.68 0,-41.976 30.437,-72.269 73.843,-72.269 z m -36.484,72.269 c 0,25.079 11.887,41.711 36.484,41.711 24.055,0 35.938,-15.312 35.938,-41.711 0,-24.546 -11.61,-43.293 -35.938,-43.293 -23.218,0 -36.484,18.477 -36.484,43.293"
         style="fill:#ffffff;fill-opacity:1;fill-rule:nonzero;stroke:none"
         id="path32" />
      <path
         d="m 728.383,241.898 c -8.305,1.321 -16.32,3.176 -24.613,3.176 -14.582,0 -24.754,-3.437 -24.754,-10.57 0,-8.191 13.75,-14.793 29.168,-22.981 14.668,-7.925 34.867,-18.492 34.867,-42.265 0,-26.106 -23.246,-40.836 -58.539,-40.836 -16.016,0 -27.086,3.16 -40.367,6.051 v 28.968 c 10.242,-3.168 26.839,-8.711 41.746,-8.711 9.902,0 19.8,4.489 19.8,13.469 0,8.192 -11.828,13.211 -28.894,22.719 -15.496,7.66 -35.149,23.512 -35.149,43.586 0,23.719 23.801,36.867 55.793,36.867 10.465,0 20.704,-1.051 30.942,-2.285 v -27.188"
         style="fill:#ffffff;fill-opacity:1;fill-rule:nonzero;stroke:none"
         id="path34" />
      <path
         d="m 111.898,133.004 c 0.832,15.301 1.387,27.18 1.387,48.562 v 73.375 c 0,26.391 -1.66,46.454 -5.543,65.989 h 48.469 c 0,-13.465 -1.383,-32.203 -1.383,-53.317 v -68.629 c 0,-19.265 3.043,-48.039 5.539,-65.98 h -48.469"
         style="fill:#ffffff;fill-opacity:1;fill-rule:nonzero;stroke:none"
         id="path36" />
      <path
         d="m 235.715,75.4102 c -2.777,20.3086 -2.777,42.9878 -2.777,50.3748 v 15.813 c 9.984,-5.797 20.519,-13.176 42.968,-13.176 37.965,0 63.703,28.976 63.703,68.84 0,43.289 -26.566,74.109 -65.363,74.109 -26.887,0 -37.976,-12.902 -46.848,-22.644 -1.933,7.089 -2.769,13.136 -4.988,19.203 l -35.168,-2.641 c 4.434,-23.16 8.309,-44.738 8.309,-68.418 v -55.273 c 0,-19.504 -4.156,-56.1644 -5.535,-68.8246 z m -5.551,121.4608 c 0,27.051 11.367,45.531 34.934,45.531 21.906,0 37.152,-18.746 37.152,-45.406 0,-23.758 -11.922,-39.598 -35.488,-39.598 -23.285,0 -36.598,13.418 -36.598,39.473"
         style="fill:#ffffff;fill-opacity:1;fill-rule:nonzero;stroke:none"
         id="path38" />
      <path
         d="m 441.723,242.305 c -8.301,1.324 -13.34,2.769 -21.629,2.769 -14.574,0 -24.758,-3.437 -24.758,-10.57 0,-8.191 13.758,-14.793 29.176,-22.981 14.668,-7.925 34.867,-18.492 34.867,-42.265 0,-26.106 -23.246,-40.836 -58.539,-40.836 -16.016,0 -27.086,3.16 -40.367,6.051 v 28.968 c 10.234,-3.168 26.84,-8.711 41.746,-8.711 9.898,0 19.801,4.489 19.801,13.469 0,8.192 -11.825,13.211 -28.899,22.719 -15.488,7.66 -35.137,23.512 -35.137,43.586 0,23.719 23.793,36.867 55.786,36.867 10.464,0 23.07,-1.508 33.308,-2.742 l -5.355,-26.324"
         style="fill:#ffffff;fill-opacity:1;fill-rule:nonzero;stroke:none"
         id="path40" />
    </g>
  </g>
</svg>
