<svg xmlns="http://www.w3.org/2000/svg" xmlns:xlink="http://www.w3.org/1999/xlink" width="311.036" height="66.873" viewBox="0 0 311.036 66.873">
  <defs>
    <clipPath id="clip-path">
      <path id="Path_5" data-name="Path 5" d="M0-32.76H311.036V-99.633H0Z" transform="translate(0 99.633)" fill="#d92612"/>
    </clipPath>
  </defs>
  <g id="Group_6" data-name="Group 6" transform="translate(0 99.633)">
    <g id="Group_1" data-name="Group 1" transform="translate(282.395 -99.633)">
      <path id="Path_1" data-name="Path 1" d="M-2.251,0-6.628,6.345h3.939L2.563,0ZM-6.846,45.875h4.377V9.846H-6.846Z" transform="translate(6.846)" fill="#d92612"/>
    </g>
    <g id="Group_5" data-name="Group 5" transform="translate(0 -99.633)" clip-path="url(#clip-path)">
      <g id="Group_2" data-name="Group 2" transform="translate(259.395 40.688)">
        <path id="Path_2" data-name="Path 2" d="M0,0A25.33,25.33,0,0,0,25.122,24.827,25.33,25.33,0,0,0,50.244,0Z" fill="#d92612"/>
      </g>
      <g id="Group_3" data-name="Group 3" transform="translate(259.395 40.688)">
        <path id="Path_3" data-name="Path 3" d="M0,0A25.33,25.33,0,0,0,25.122,24.827,25.33,25.33,0,0,0,50.244,0Z" fill="#d92612" stroke="#d92612" stroke-width="4.047"/>
      </g>
      <g id="Group_4" data-name="Group 4" transform="translate(0 26.619)">
        <path id="Path_4" data-name="Path 4" d="M0-15.412H4.557V-26.261H13.67c4.99,0,8.9-3.906,8.9-9.764s-3.906-9.764-8.9-9.764H0ZM4.557-30.6V-41.449h8.9c2.387,0,4.556,2.17,4.556,5.425S15.84-30.6,13.453-30.6ZM35.528-14.978c6.292,0,10.849-4.557,10.849-11.283S41.82-37.544,35.528-37.544,24.678-32.988,24.678-26.261s4.557,11.283,10.849,11.283m0-3.906c-3.689,0-6.509-2.821-6.509-7.377s2.82-7.377,6.509-7.377,6.509,2.82,6.509,7.377-2.821,7.377-6.509,7.377m23.719,3.906a8,8,0,0,0,6.726-3.038h.217l.434,2.6H70.53V-45.789H66.19v11.282h-.217a8,8,0,0,0-6.726-3.037c-5.641,0-9.981,4.339-9.981,11.283s4.34,11.283,9.981,11.283m.65-3.906c-3.471,0-6.292-2.821-6.292-7.377s2.82-7.377,6.292-7.377,6.292,2.82,6.292,7.377-2.82,7.377-6.292,7.377m33.869,3.906c6.075,0,8.9-3.038,8.9-6.509,0-3.689-2.17-5.815-6.292-6.51l-3.906-.65c-1.952-.391-3.255-1.3-3.255-2.6s1.3-2.6,4.34-2.6c3.255,0,4.556,1.736,4.556,3.038h4.34c0-2.387-2.6-6.726-8.9-6.726-5.859,0-8.679,2.82-8.679,6.292,0,3.689,2.17,5.6,6.292,6.292l3.906.651c2.387.391,3.255,1.3,3.255,2.821,0,1.3-1.3,2.82-4.557,2.82-3.471,0-4.99-1.953-4.99-3.255h-4.34c0,2.387,2.387,6.944,9.33,6.944m17.471-.434h6.509l7.594-21.7h-4.557l-5.858,16.924h-.868L108.2-37.11h-4.557Zm16.693,0h4.339v-21.7H127.93Zm.217-25.169h3.9l5.208-6.292h-4.774Zm18.755,25.6a9.827,9.827,0,0,0,9.981-8.028h-4.339a5.6,5.6,0,0,1-5.641,4.122c-3.689,0-6.509-2.821-6.509-7.377s2.82-7.377,6.509-7.377a5.611,5.611,0,0,1,5.641,3.905h4.339a9.864,9.864,0,0,0-9.981-7.811c-6.292,0-10.849,4.556-10.849,11.283s4.557,11.283,10.849,11.283m13.647-.434h4.339V-28.431a5.385,5.385,0,0,1,5.641-5.207,5.139,5.139,0,0,1,5.207,5.207v13.018h4.34V-28.431c0-5.641-3.471-9.113-8.679-9.113a8.5,8.5,0,0,0-6.292,2.6h-.217l-.434-2.17H160.55Zm34.043.434a10.322,10.322,0,0,0,9.764-6.727H199.8a5.649,5.649,0,0,1-5.208,3.038,6.433,6.433,0,0,1-6.509-6.076h16.707a9.847,9.847,0,0,0,.217-2.169,10.333,10.333,0,0,0-10.415-10.632c-6.292,0-10.849,4.556-10.849,11.283s4.557,11.283,10.849,11.283M188.084-28c.651-3.471,2.821-5.858,6.509-5.858,3.472,0,5.858,2.387,6.292,5.858Zm20.851,12.585h4.339v-13.67a4.633,4.633,0,0,1,4.774-4.556c2.6,0,4.339,1.736,4.339,4.556v13.67h4.34v-13.67a4.633,4.633,0,0,1,4.774-4.556c2.6,0,4.339,1.736,4.339,4.556v13.67h4.339V-29.126c0-4.947-3.255-8.418-7.811-8.418-4.991,0-7.16,3.037-7.16,3.037h-.217a6.414,6.414,0,0,0-5.859-3.037,7.927,7.927,0,0,0-5.641,2.6h-.217l-.434-2.17h-3.906Z" transform="translate(0 46.874)" fill="#d92612"/>
      </g>
    </g>
  </g>
</svg>
